<?xml version="1.0" encoding="iso-8859-1"?>
<!-- Generator: Adobe Illustrator 16.0.0, SVG Export Plug-In . SVG Version: 6.00 Build 0)  -->
<!DOCTYPE svg PUBLIC "-//W3C//DTD SVG 1.1//EN" "http://www.w3.org/Graphics/SVG/1.1/DTD/svg11.dtd">
<svg version="1.1" id="Capa_1" xmlns="http://www.w3.org/2000/svg" xmlns:xlink="http://www.w3.org/1999/xlink" x="0px" y="0px"
	 width="57.602px" height="57.602px" viewBox="0 0 57.602 57.602" style="enable-background:new 0 0 57.602 57.602;"
	 xml:space="preserve">
<g>
	<path d="M0.804,25.259C0.285,23.68,0,21.996,0,20.244C0,14.105,3.396,8.766,8.414,5.986c2.331-1.282,5.01-2.018,7.858-2.018
		c5.033,0,9.544,2.292,12.522,5.889c2.99-3.595,7.498-5.889,12.542-5.889c2.845,0,5.514,0.736,7.854,2.018
		c5.012,2.777,8.413,8.122,8.413,14.258c0,1.752-0.285,3.439-0.804,5.015c-0.147,0.662-0.392,1.341-0.654,2.021H41.78l-6.856-12.862
		l-6.466,19.754l-6.113-20.789L17.347,27.28H1.458C1.194,26.604,0.951,25.925,0.804,25.259z M39.951,30.319l-4.356-8.165
		l-7.291,22.294L22.052,23.19l-2.564,7.134H2.967c6.827,11.364,25.827,23.31,25.827,23.31s19.017-11.945,25.842-23.314H39.951
		L39.951,30.319z"/>
</g>
<g>
</g>
<g>
</g>
<g>
</g>
<g>
</g>
<g>
</g>
<g>
</g>
<g>
</g>
<g>
</g>
<g>
</g>
<g>
</g>
<g>
</g>
<g>
</g>
<g>
</g>
<g>
</g>
<g>
</g>
</svg>
